<svg xmlns="http://www.w3.org/2000/svg" viewBox="0 0 200 200">
  <defs>
    <linearGradient id="gradient" x1="0%" y1="0%" x2="100%" y2="100%">
      <stop offset="0%" style="stop-color:#667eea;stop-opacity:1" />
      <stop offset="100%" style="stop-color:#764ba2;stop-opacity:1" />
    </linearGradient>
  </defs>
  
  <!-- Car body -->
  <rect x="50" y="120" width="100" height="30" rx="15" fill="url(#gradient)" stroke="#2c3e50" stroke-width="2"/>
  
  <!-- Car roof -->
  <rect x="70" y="100" width="60" height="20" rx="10" fill="url(#gradient)" stroke="#2c3e50" stroke-width="2"/>
  
  <!-- Wheels -->
  <circle cx="75" cy="160" r="12" fill="#2c3e50"/>
  <circle cx="125" cy="160" r="12" fill="#2c3e50"/>
  
  <!-- Wheel centers -->
  <circle cx="75" cy="160" r="6" fill="#ecf0f1"/>
  <circle cx="125" cy="160" r="6" fill="#ecf0f1"/>
  
  <!-- Lightning bolt (EV symbol) -->
  <path d="M90 60 L110 60 L95 85 L105 85 L85 110 L105 85 L90 85 Z" 
        fill="#f1c40f" 
        stroke="#e67e22" 
        stroke-width="1"/>
  
  <!-- Evaluation checkmark -->
  <circle cx="140" cy="70" r="20" fill="#27ae60" opacity="0.9"/>
  <path d="M130 70 L137 77 L150 64" 
        stroke="#ffffff" 
        stroke-width="3" 
        fill="none" 
        stroke-linecap="round"/>
  
  <!-- Route lines -->
  <path d="M20 40 Q50 20 80 40 T140 40 T180 40" 
        stroke="#3498db" 
        stroke-width="3" 
        fill="none" 
        stroke-dasharray="5,5"/>
  
  <!-- Location pins -->
  <circle cx="20" cy="40" r="4" fill="#e74c3c"/>
  <circle cx="80" cy="40" r="4" fill="#e74c3c"/>
  <circle cx="140" cy="40" r="4" fill="#e74c3c"/>
  <circle cx="180" cy="40" r="4" fill="#e74c3c"/>
</svg>